# xmcd CD database file
#
# Track frame offsets:
#	182
#	10435
#	22065
#	35375
#	45635
#	57385
#	71045
#	83345
#	95687
#	109045
#	128947
#	139477
#	150105
#	164400
#	177572
#	192450
#	203545
#	214907
#	228622
#	242512
#	255480
#	277837
#	290960
#
# Disc length: 4024 seconds
#
# Revision: 0
# Processed by: cddbd v1.5.2PL0 Copyright (c) Steve Scherf et al.
# Submitted via: CDex 1.79
#
DISCID=500fb617
DTITLE=Various Artist - Thanks For The Memories CD 4
DYEAR=1900
DGENRE=Country
TTITLE0=Til The End Of Time
TTITLE1=Red Roses For A Blue Lady
TTITLE2=You'll Never Know
TTITLE3=My Happiness
TTITLE4=Now Is The Hour
TTITLE5=I'll Be Seeing You
TTITLE6=Laura
TTITLE7=Deep Purple
TTITLE8=Over The Rainbow
TTITLE9=A Nightingale Sang In Berkeley Square
TTITLE10=A Foggy Day
TTITLE11=Don't Sit Under The Apple Tree (With Anyone Else But Me)
TTITLE12=The Glory Of Love
TTITLE13=Love Walked In
TTITLE14=Bei Mir Bist Du Schon
TTITLE15=I've Heard That Song Before
TTITLE16=They Can't Take That Away From Me
TTITLE17=Blues In The Night
TTITLE18=Flamingo
TTITLE19=Pennies From Heaven
TTITLE20=Thanks For The Memory
TTITLE21=I'm Getting Sentimental Over You
TTITLE22=I Don't Want To Set The World On Fire
EXTD=
EXTT0=
EXTT1=
EXTT2=
EXTT3=
EXTT4=
EXTT5=
EXTT6=
EXTT7=
EXTT8=
EXTT9=
EXTT10=
EXTT11=
EXTT12=
EXTT13=
EXTT14=
EXTT15=
EXTT16=
EXTT17=
EXTT18=
EXTT19=
EXTT20=
EXTT21=
EXTT22=
PLAYORDER=
